<svg id="svg" version="1.1" xmlns="http://www.w3.org/2000/svg" style="display: block;" viewBox="0 0 444 228"><path d="M0 0 C146.52 0 293.04 0 444 0 C444 75.24 444 150.48 444 228 C297.48 228 150.96 228 0 228 C0 152.76 0 77.52 0 0 Z " transform="translate(0,0)" style="fill: #151515;"/><path d="M0 0 C1.65 0 3.3 0 5 0 C5 0.66 5 1.32 5 2 C6.14210938 1.99777939 7.28421875 1.99555878 8.4609375 1.99327087 C19.28703451 1.97289411 30.11312758 1.95795838 40.9392395 1.94818783 C46.50344652 1.94299565 52.06763791 1.93596554 57.63183594 1.92456055 C63.01351065 1.9136002 68.39517044 1.90769564 73.77685547 1.90512276 C75.81787348 1.90329198 77.85889078 1.89971763 79.89990234 1.89426994 C82.78484792 1.88688429 85.66973382 1.88601628 88.5546875 1.88647461 C89.37613251 1.88287933 90.19757751 1.87928406 91.04391479 1.87557983 C99.08923281 1.88918455 106.91428945 2.49464309 115 3 C115 34.35 115 65.7 115 98 C106 100.25 106 100.25 101 100 C101 100.66 101 101.32 101 102 C97.04 102.66 93.08 103.32 89 104 C89 104.66 89 105.32 89 106 C85.38026598 107.31626692 82.90432869 108 79 108 C79 108.66 79 109.32 79 110 C76.36 110.66 73.72 111.32 71 112 C71 112.66 71 113.32 71 114 C68.03 114.99 68.03 114.99 65 116 C64.67 116.66 64.34 117.32 64 118 C62.1875 119 62.1875 119 60 120 C59.01 120 58.02 120 57 120 C56.01 121.98 56.01 121.98 55 124 C54.01 124 53.02 124 52 124 C51.505 125.485 51.505 125.485 51 127 C48.03 129.475 48.03 129.475 45 132 C45 132.66 45 133.32 45 134 C45.66 134 46.32 134 47 134 C47 133.34 47 132.68 47 132 C47.5775 131.7525 48.155 131.505 48.75 131.25 C51.3002997 129.83316683 53.01785701 128.12372463 55 126 C55.66 126 56.32 126 57 126 C57 125.34 57 124.68 57 124 C57.99 123.34 58.98 122.68 60 122 C60.99 122 61.98 122 63 122 C63.33 121.01 63.66 120.02 64 119 C66.475 118.505 66.475 118.505 69 118 C69 117.34 69 116.68 69 116 C70.8125 115 70.8125 115 73 114 C73.99 114 74.98 114 76 114 C76 113.34 76 112.68 76 112 C80.455 111.01 80.455 111.01 85 110 C85 109.34 85 108.68 85 108 C88.87684087 106.80712589 91.91621923 106 96 106 C96 105.34 96 104.68 96 104 C97.72807318 103.66104344 99.45751974 103.32908475 101.1875 103 C102.63189453 102.7215625 102.63189453 102.7215625 104.10546875 102.4375 C106.7934206 102.03122388 109.28771019 101.92066428 112 102 C112 101.34 112 100.68 112 100 C112.99 100 113.98 100 115 100 C115 127.72 115 155.44 115 184 C114.34 184 113.68 184 113 184 C113 185.32 113 186.64 113 188 C52.28 188 -8.44 188 -71 188 C-71 127.28 -71 66.56 -71 4 C-48.23 3.505 -48.23 3.505 -25 3 C-18.565 2.505 -18.565 2.505 -12 2 C-9.72978471 1.94307384 -7.45826409 1.9101414 -5.1875 1.9375 C-3.69283203 1.95103516 -3.69283203 1.95103516 -2.16796875 1.96484375 C-1.09482422 1.98224609 -1.09482422 1.98224609 0 2 C0 1.34 0 0.68 0 0 Z " transform="translate(76,33)" style="fill: #FEFEFE;"/><path d="M0 0 C1.48398788 -0.00197891 1.48398788 -0.00197891 2.99795532 -0.0039978 C6.18877363 -0.00590329 9.37950324 0.00039146 12.5703125 0.0078125 C14.18836792 0.00914185 14.18836792 0.00914185 15.83911133 0.01049805 C31.48099489 0.02566961 47.07643381 0.22924101 62.6953125 1.1328125 C62.6953125 1.7928125 62.6953125 2.4528125 62.6953125 3.1328125 C91.4053125 3.1328125 120.1153125 3.1328125 149.6953125 3.1328125 C149.6953125 2.4728125 149.6953125 1.8128125 149.6953125 1.1328125 C155.3053125 1.1328125 160.9153125 1.1328125 166.6953125 1.1328125 C166.6953125 57.5628125 166.6953125 113.9928125 166.6953125 172.1328125 C167.3553125 172.1328125 168.0153125 172.1328125 168.6953125 172.1328125 C168.6953125 177.4128125 168.6953125 182.6928125 168.6953125 188.1328125 C166.88740234 188.12495728 166.88740234 188.12495728 165.04296875 188.11694336 C130.2547575 187.98181574 95.47921475 188.28076055 60.69432831 188.7413702 C56.19988567 188.80062723 51.70542126 188.85801445 47.2109375 188.9140625 C46.33646469 188.92497484 45.46199188 188.93588718 44.5610199 188.9471302 C23.93938317 189.1978278 3.31810923 189.18299244 -17.3046875 189.1328125 C-18.81460932 157.77696569 -19.60181299 126.52526341 -19.3046875 95.1328125 C-11.7070927 94.97962661 -4.24423863 95.4526463 3.3203125 96.1328125 C4.41988281 96.22820312 5.51945312 96.32359375 6.65234375 96.421875 C9.33369232 96.65503574 12.01463471 96.8920829 14.6953125 97.1328125 C14.6953125 97.7928125 14.6953125 98.4528125 14.6953125 99.1328125 C16.0153125 99.1328125 17.3353125 99.1328125 18.6953125 99.1328125 C18.6953125 101.7728125 18.6953125 104.4128125 18.6953125 107.1328125 C19.3553125 107.1328125 20.0153125 107.1328125 20.6953125 107.1328125 C21.03351416 108.7151131 21.36567189 110.29870625 21.6953125 111.8828125 C21.97375 113.20539063 21.97375 113.20539063 22.2578125 114.5546875 C22.6953125 117.1328125 22.6953125 117.1328125 22.6953125 121.1328125 C23.3553125 121.1328125 24.0153125 121.1328125 24.6953125 121.1328125 C25.3553125 124.4328125 26.0153125 127.7328125 26.6953125 131.1328125 C27.3553125 131.1328125 28.0153125 131.1328125 28.6953125 131.1328125 C29.42435336 132.77315443 30.08186493 134.44583168 30.6953125 136.1328125 C30.6953125 137.4528125 30.6953125 138.7728125 30.6953125 140.1328125 C31.6853125 140.4628125 32.6753125 140.7928125 33.6953125 141.1328125 C34.0253125 142.1228125 34.3553125 143.1128125 34.6953125 144.1328125 C35.98887077 145.50476824 37.31829952 146.84463906 38.6953125 148.1328125 C38.6953125 149.1228125 38.6953125 150.1128125 38.6953125 151.1328125 C41.6653125 152.1228125 41.6653125 152.1228125 44.6953125 153.1328125 C45.3553125 154.1228125 46.0153125 155.1128125 46.6953125 156.1328125 C47.6853125 156.4628125 48.6753125 156.7928125 49.6953125 157.1328125 C49.6953125 157.7928125 49.6953125 158.4528125 49.6953125 159.1328125 C50.9328125 159.2771875 52.1703125 159.4215625 53.4453125 159.5703125 C56.26035749 159.91969752 58.9654622 160.33660616 61.6953125 161.1328125 C61.6953125 161.7928125 61.6953125 162.4528125 61.6953125 163.1328125 C69.6153125 163.1328125 77.5353125 163.1328125 85.6953125 163.1328125 C85.6953125 162.4728125 85.6953125 161.8128125 85.6953125 161.1328125 C90.1503125 160.1428125 90.1503125 160.1428125 94.6953125 159.1328125 C94.6953125 158.4728125 94.6953125 157.8128125 94.6953125 157.1328125 C95.6028125 156.8853125 96.5103125 156.6378125 97.4453125 156.3828125 C100.75855659 155.3291156 100.75855659 155.3291156 103.0703125 153.0078125 C103.6065625 152.3890625 104.1428125 151.7703125 104.6953125 151.1328125 C105.3553125 151.1328125 106.0153125 151.1328125 106.6953125 151.1328125 C106.6953125 150.4728125 106.6953125 149.8128125 106.6953125 149.1328125 C107.3553125 148.8028125 108.0153125 148.4728125 108.6953125 148.1328125 C109.3553125 146.8128125 110.0153125 145.4928125 110.6953125 144.1328125 C111.3553125 144.1328125 112.0153125 144.1328125 112.6953125 144.1328125 C112.8396875 143.5346875 112.9840625 142.9365625 113.1328125 142.3203125 C113.5825564 140.57130846 114.12423591 138.84604227 114.6953125 137.1328125 C115.3553125 137.1328125 116.0153125 137.1328125 116.6953125 137.1328125 C117.60751708 130.16096323 117.85136794 123.3477152 117.8203125 116.3203125 C117.81837891 115.26457031 117.81644531 114.20882812 117.81445312 113.12109375 C117.77533449 106.07973879 117.55439922 99.12823293 116.6953125 92.1328125 C116.0353125 92.1328125 115.3753125 92.1328125 114.6953125 92.1328125 C113.55766899 87.86664934 112.6953125 84.56794939 112.6953125 80.1328125 C112.0353125 80.1328125 111.3753125 80.1328125 110.6953125 80.1328125 C109.7053125 75.6778125 109.7053125 75.6778125 108.6953125 71.1328125 C108.0353125 71.1328125 107.3753125 71.1328125 106.6953125 71.1328125 C105.7053125 67.1728125 105.7053125 67.1728125 104.6953125 63.1328125 C104.0353125 63.1328125 103.3753125 63.1328125 102.6953125 63.1328125 C102.0353125 62.1428125 101.3753125 61.1528125 100.6953125 60.1328125 C100.6953125 59.1428125 100.6953125 58.1528125 100.6953125 57.1328125 C100.0353125 57.1328125 99.3753125 57.1328125 98.6953125 57.1328125 C97.7053125 55.1528125 97.7053125 55.1528125 96.6953125 53.1328125 C96.0353125 52.8028125 95.3753125 52.4728125 94.6953125 52.1328125 C94.0353125 49.8228125 93.3753125 47.5128125 92.6953125 45.1328125 C91.2103125 44.6378125 91.2103125 44.6378125 89.6953125 44.1328125 C89.3653125 43.1428125 89.0353125 42.1528125 88.6953125 41.1328125 C87.40175423 39.76085676 86.07232548 38.42098594 84.6953125 37.1328125 C84.6953125 36.4728125 84.6953125 35.8128125 84.6953125 35.1328125 C84.0353125 35.1328125 83.3753125 35.1328125 82.6953125 35.1328125 C82.0353125 34.1428125 81.3753125 33.1528125 80.6953125 32.1328125 C80.6953125 31.1428125 80.6953125 30.1528125 80.6953125 29.1328125 C79.3753125 28.4728125 78.0553125 27.8128125 76.6953125 27.1328125 C76.6953125 26.4728125 76.6953125 25.8128125 76.6953125 25.1328125 C75.3753125 24.4728125 74.0553125 23.8128125 72.6953125 23.1328125 C72.6953125 22.4728125 72.6953125 21.8128125 72.6953125 21.1328125 C71.7465625 20.9884375 70.7978125 20.8440625 69.8203125 20.6953125 C66.6953125 20.1328125 66.6953125 20.1328125 64.6953125 19.1328125 C64.6953125 18.4728125 64.6953125 17.8128125 64.6953125 17.1328125 C57.1522023 15.87562747 50.2384227 15.87562747 42.6953125 17.1328125 C42.2003125 18.6178125 42.2003125 18.6178125 41.6953125 20.1328125 C40.7053125 20.4628125 39.7153125 20.7928125 38.6953125 21.1328125 C36.7153125 23.4428125 34.7353125 25.7528125 32.6953125 28.1328125 C32.0353125 28.1328125 31.3753125 28.1328125 30.6953125 28.1328125 C30.5509375 28.7309375 30.4065625 29.3290625 30.2578125 29.9453125 C29.8080686 31.69431654 29.26638909 33.41958273 28.6953125 35.1328125 C28.0353125 35.1328125 27.3753125 35.1328125 26.6953125 35.1328125 C26.0353125 38.1028125 25.3753125 41.0728125 24.6953125 44.1328125 C24.0353125 44.1328125 23.3753125 44.1328125 22.6953125 44.1328125 C22.0353125 50.4028125 21.3753125 56.6728125 20.6953125 63.1328125 C20.0353125 63.1328125 19.3753125 63.1328125 18.6953125 63.1328125 C18.6953125 74.0228125 18.6953125 84.9128125 18.6953125 96.1328125 C14.4053125 95.8028125 10.1153125 95.4728125 5.6953125 95.1328125 C5.6953125 94.4728125 5.6953125 93.8128125 5.6953125 93.1328125 C-3.2146875 92.4728125 -12.1246875 91.8128125 -21.3046875 91.1328125 C-21.3046875 83.8728125 -21.3046875 76.6128125 -21.3046875 69.1328125 C-20.6446875 69.1328125 -19.9846875 69.1328125 -19.3046875 69.1328125 C-19.31134933 68.03193298 -19.31134933 68.03193298 -19.31814575 66.90881348 C-19.35835263 59.96530677 -19.38873778 53.02181765 -19.40831184 46.07822418 C-19.41871363 42.50912985 -19.43280625 38.94013236 -19.45556641 35.37109375 C-19.47742432 31.92163654 -19.48928319 28.47227202 -19.49444199 25.02275085 C-19.49989226 23.07751404 -19.51548421 21.1323141 -19.53128052 19.18713379 C-19.53208343 12.80562337 -19.22905233 7.23218337 -17.3046875 1.1328125 C-11.50296529 0.13395214 -5.87986435 -0.01248137 0 0 Z " transform="translate(270.3046875,35.8671875)" style="fill: #FDFDFD;"/><path d="M0 0 C146.52 0 293.04 0 444 0 C444 12.21 444 24.42 444 37 C442.35 36.67 440.7 36.34 439 36 C436.13718003 35.91625342 433.30312305 35.88266347 430.44140625 35.90625 C429.60807266 35.90983521 428.77473907 35.91342041 427.91615295 35.91711426 C419.45326686 35.97052877 410.99532886 36.18882217 402.53601074 36.42807007 C370.90291572 37.30371254 339.60199716 36.56038752 308 35 C308 34.34 308 33.68 308 33 C301.73 33 295.46 33 289 33 C289 33.66 289 34.32 289 35 C283.06 35 277.12 35 271 35 C271 34.34 271 33.68 271 33 C267.37 33 263.74 33 260 33 C260 33.66 260 34.32 260 35 C258.01432292 35.22786458 256.02864583 35.45572917 254.04296875 35.68359375 C251.80603607 35.97170735 251.80603607 35.97170735 249 37 C248.67 66.7 248.34 96.4 248 127 C231.665 127.495 231.665 127.495 215 128 C205.49703077 128.46015977 205.49703077 128.46015977 196 129 C196 129.66 196 130.32 196 131 C194.68 131 193.36 131 192 131 C191.97644373 122.35671705 191.95887115 113.71344833 191.94818783 105.07014084 C191.94305085 101.05325914 191.93612903 97.03639998 191.92456055 93.01953125 C191.913394 89.11611981 191.90765489 85.2127295 191.90512276 81.30930328 C191.90332728 79.84758421 191.89982959 78.38586579 191.89426994 76.92415619 C191.84088063 62.252875 192.47554779 47.68466176 193 33 C146.14 33 99.28 33 51 33 C51 33.66 51 34.32 51 35 C35.16 35 19.32 35 3 35 C3 96.38 3 157.76 3 221 C2.34 221 1.68 221 1 221 C0.505 221.99 0.505 221.99 0 223 C0 149.41 0 75.82 0 0 Z " transform="translate(0,0)" style="fill: #FCFCFC;"/><path d="M0 0 C2.40980673 0.52942724 4.65360496 1.21786832 7 2 C7 2.66 7 3.32 7 4 C9.64 4.66 12.28 5.32 15 6 C15.40992188 6.49371094 15.81984375 6.98742188 16.2421875 7.49609375 C16.78101563 8.13675781 17.31984375 8.77742188 17.875 9.4375 C18.40867187 10.07558594 18.94234375 10.71367188 19.4921875 11.37109375 C20.9222757 13.10805004 20.9222757 13.10805004 23 14 C23.66 15.98 24.32 17.96 25 20 C25.66 20 26.32 20 27 20 C27.99 21.98 27.99 21.98 29 24 C29.99 24.66 30.98 25.32 32 26 C32.495 27.485 32.495 27.485 33 29 C34.49985609 30.66710346 34.49985609 30.66710346 36 32 C36.495 34.475 36.495 34.475 37 37 C38.485 37.495 38.485 37.495 40 38 C40.495 39.98 40.495 39.98 41 42 C41.66 42 42.32 42 43 42 C43.99 44.97 43.99 44.97 45 48 C45.66 48 46.32 48 47 48 C47.71247732 49.6476038 48.37400383 51.31763529 49 53 C49 53.99 49 54.98 49 56 C49.66 56 50.32 56 51 56 C51.99 60.455 51.99 60.455 53 65 C53.66 65 54.32 65 55 65 C56.29243536 69.1196377 57.26252625 72.66831683 57 77 C57.66 77 58.32 77 59 77 C60.97488767 85.04061407 61.21980633 92.94462766 61.25 101.1875 C61.25902344 102.2084375 61.26804687 103.229375 61.27734375 104.28125 C61.2531772 110.49205273 60.57290881 115.98924134 59 122 C58.34 122 57.68 122 57 122 C56.7834375 122.8971875 56.7834375 122.8971875 56.5625 123.8125 C56.1127561 125.56150404 55.57107659 127.28677023 55 129 C54.34 129.33 53.68 129.66 53 130 C52.34 131.32 51.68 132.64 51 134 C50.34 134 49.68 134 49 134 C49 134.66 49 135.32 49 136 C47.02 136.99 47.02 136.99 45 138 C44.34 138.99 43.68 139.98 43 141 C41.02 141.33 39.04 141.66 37 142 C37 142.66 37 143.32 37 144 C35.35965807 144.72904086 33.68698082 145.38655243 32 146 C30.68 146 29.36 146 28 146 C28 146.66 28 147.32 28 148 C23.95038003 148.96638658 20.15797593 149.13396116 16 149.125 C14.205625 149.12886719 14.205625 149.12886719 12.375 149.1328125 C9.44672307 149.01757938 6.84213024 148.67823563 4 148 C4 147.34 4 146.68 4 146 C2.7625 145.855625 1.525 145.71125 0.25 145.5625 C-2.56504499 145.21311498 -5.2701497 144.79620634 -8 144 C-8 143.34 -8 142.68 -8 142 C-9.32 141.67 -10.64 141.34 -12 141 C-12.33 140.01 -12.66 139.02 -13 138 C-14.98 137.34 -16.96 136.68 -19 136 C-19.66 134.02 -20.32 132.04 -21 130 C-21.99 129.67 -22.98 129.34 -24 129 C-24.33 128.01 -24.66 127.02 -25 126 C-25.66 125.67 -26.32 125.34 -27 125 C-27.66 122.03 -28.32 119.06 -29 116 C-29.66 116 -30.32 116 -31 116 C-32.31626692 112.38026598 -33 109.90432869 -33 106 C-33.66 106 -34.32 106 -35 106 C-37.29612756 96.58997722 -37.29612756 96.58997722 -37 92 C-37.66 92 -38.32 92 -39 92 C-39 89.69 -39 87.38 -39 85 C-31.57142857 84.85714286 -31.57142857 84.85714286 -28 86 C-28 86.66 -28 87.32 -28 88 C-26.7625 88.144375 -25.525 88.28875 -24.25 88.4375 C-21.43495501 88.78688502 -18.7298503 89.20379366 -16 90 C-16 90.66 -16 91.32 -16 92 C-14.8553125 92.2165625 -14.8553125 92.2165625 -13.6875 92.4375 C-11 93 -11 93 -8 94 C-8 94.66 -8 95.32 -8 96 C-7.236875 96.144375 -6.47375 96.28875 -5.6875 96.4375 C-3 97 -3 97 0 98 C0 98.66 0 99.32 0 100 C1.65 100.33 3.3 100.66 5 101 C5.99 101.99 6.98 102.98 8 104 C8.33 105.65 8.66 107.3 9 109 C11.31 109.33 13.62 109.66 16 110 C16 110.66 16 111.32 16 112 C16.99 112 17.98 112 19 112 C19 108.37 19 104.74 19 101 C18.01 101.495 18.01 101.495 17 102 C16.34 103.32 15.68 104.64 15 106 C13.68 105.34 12.36 104.68 11 104 C11 103.34 11 102.68 11 102 C9.68 101.34 8.36 100.68 7 100 C7 99.34 7 98.68 7 98 C6.401875 97.855625 5.80375 97.71125 5.1875 97.5625 C3.43849596 97.1127561 1.71322977 96.57107659 0 96 C0 95.34 0 94.68 0 94 C-0.763125 93.855625 -1.52625 93.71125 -2.3125 93.5625 C-5 93 -5 93 -8 92 C-8 91.34 -8 90.68 -8 90 C-9.0725 89.855625 -10.145 89.71125 -11.25 89.5625 C-13.91662949 89.16250558 -16.41399729 88.72408076 -19 88 C-19 87.34 -19 86.68 -19 86 C-19.60328125 85.93941406 -20.2065625 85.87882812 -20.828125 85.81640625 C-22.02695312 85.69072266 -22.02695312 85.69072266 -23.25 85.5625 C-24.43335938 85.44068359 -24.43335938 85.44068359 -25.640625 85.31640625 C-27.82364639 85.02365007 -29.8773182 84.57935581 -32 84 C-32 83.34 -32 82.68 -32 82 C-34.31 81.67 -36.62 81.34 -39 81 C-39 70.11 -39 59.22 -39 48 C-38.34 48 -37.68 48 -37 48 C-37.02320313 47.29875 -37.04640625 46.5975 -37.0703125 45.875 C-37.18502478 39.84441138 -36.74356567 34.77556127 -35 29 C-34.34 29 -33.68 29 -33 29 C-32.855625 27.88625 -32.71125 26.7725 -32.5625 25.625 C-32 22 -32 22 -31 20 C-30.34 20 -29.68 20 -29 20 C-28.7834375 19.1028125 -28.7834375 19.1028125 -28.5625 18.1875 C-28.1127561 16.43849596 -27.57107659 14.71322977 -27 13 C-25.50260417 11.79557292 -24.00520833 10.59114583 -22.5078125 9.38671875 C-20.74707893 7.87729455 -20.74707893 7.87729455 -19 5 C-18.01 4.67 -17.02 4.34 -16 4 C-15.67 3.34 -15.34 2.68 -15 2 C-9.88242504 0.29414168 -5.39752593 -0.54818623 0 0 Z " transform="translate(328,51)" style="fill: #C2E5D0;"/><path d="M0 0 C0.95964661 0.0028299 1.91929321 0.00565979 2.90802002 0.00857544 C5.92319101 0.01962194 8.93804635 0.04469545 11.953125 0.0703125 C14.01822483 0.08036244 16.08332939 0.08948472 18.1484375 0.09765625 C23.1667852 0.11951003 28.18490191 0.15392903 33.203125 0.1953125 C33.84228618 25.5322735 34.39182043 50.84916126 34.203125 76.1953125 C34.863125 76.1953125 35.523125 76.1953125 36.203125 76.1953125 C36.533125 83.1253125 36.863125 90.0553125 37.203125 97.1953125 C17.403125 97.1953125 -2.396875 97.1953125 -22.796875 97.1953125 C-23.53707091 92.01394114 -23.79429596 89.13474049 -23.06228828 84.23927307 C-22.61714182 80.8111786 -22.66609626 77.39518975 -22.68334961 73.94335938 C-22.68320358 73.16190552 -22.68305756 72.38045166 -22.6829071 71.57531738 C-22.68359745 69.02153639 -22.69134825 66.46783058 -22.69921875 63.9140625 C-22.70108605 62.13187703 -22.70250848 60.34969105 -22.70350647 58.56750488 C-22.70730704 53.89866698 -22.71711609 49.22986066 -22.72821045 44.56103516 C-22.73847769 39.78809028 -22.74301543 35.01514026 -22.74804688 30.2421875 C-22.75874077 20.89321536 -22.77578735 11.54426657 -22.796875 2.1953125 C-15.12466528 0.7239141 -7.80742638 -0.08949666 0 0 Z " transform="translate(214.796875,130.8046875)" style="fill: #FDFDFD;"/><path d="M0 0 C1.98 0 3.96 0 6 0 C6.33 0.33 6.66 0.66 7 1 C7 64.03 7 127.06 7 192 C-17.42 192.020625 -41.84 192.04125 -67 192.0625 C-78.55902344 192.07615601 -78.55902344 192.07615601 -90.3515625 192.09008789 C-99.7734375 192.09460449 -99.7734375 192.09460449 -104.18652344 192.09544373 C-107.26367923 192.09637403 -110.34081772 192.10011625 -113.41796875 192.10557556 C-117.34824642 192.11245563 -121.27849906 192.11448725 -125.2087822 192.11307228 C-126.64795446 192.11336798 -128.08712764 192.11533843 -129.52629471 192.11921513 C-136.43816748 192.13696243 -143.16619016 192.0906747 -150 191 C-150 190.01 -150 189.02 -150 188 C-135.3496478 187.84404266 -120.69923134 187.69612068 -106.04870892 187.5570364 C-99.2418218 187.49224026 -92.43497565 187.42505578 -85.62817383 187.35180664 C-56.39549688 187.0394471 -27.21422936 186.76148508 2 188 C2 182.72 2 177.44 2 172 C1.34 172 0.68 172 0 172 C-1.30641318 139.62687721 -1.15435323 107.23540096 -1.12856841 74.84276962 C-1.12419814 68.69645863 -1.12735227 62.55016792 -1.1321975 56.40385818 C-1.13673028 50.41076025 -1.13738075 44.41767109 -1.13475883 38.42457199 C-1.13320715 34.87252063 -1.13297335 31.32048308 -1.13629532 27.76843262 C-1.13971316 23.84560996 -1.13498214 19.92282068 -1.12939453 16 C-1.13141876 14.83664124 -1.13344299 13.67328247 -1.13552856 12.47467041 C-1.13270874 11.41052917 -1.12988892 10.34638794 -1.12698364 9.25 C-1.1264181 7.86554687 -1.1264181 7.86554687 -1.12584114 6.453125 C-1.00820181 4.15988461 -0.64648777 2.19655936 0 0 Z " transform="translate(437,36)" style="fill: #151515;"/><path d="M0 0 C3.63 0 7.26 0 11 0 C11 0.66 11 1.32 11 2 C16.94 2 22.88 2 29 2 C29 1.34 29 0.68 29 0 C35.27 0 41.54 0 48 0 C48 0.66 48 1.32 48 2 C48.65258789 1.99476318 49.30517578 1.98952637 49.97753906 1.98413086 C60.97786589 1.90803403 71.95338315 1.83750941 82.9375 2.5 C103.62795151 3.68829595 124.37018763 2.94099801 145.07104492 2.35595703 C156.3839472 2.04299645 167.68291425 1.94235372 179 2 C178.34 2.66 177.68 3.32 177 4 C171.39 4 165.78 4 160 4 C160 4.66 160 5.32 160 6 C99.30517557 7.66262961 99.30517557 7.66262961 73 6 C73 5.34 73 4.68 73 4 C46.6 4 20.2 4 -7 4 C-7.62407387 8.992591 -8.13186771 13.4630798 -8.20532227 18.41601562 C-8.22526749 19.61665649 -8.24521271 20.81729736 -8.26576233 22.05432129 C-8.28247482 23.32545776 -8.29918732 24.59659424 -8.31640625 25.90625 C-8.33701663 27.24003686 -8.35801405 28.57381779 -8.37937927 29.90759277 C-8.43417884 33.39269157 -8.48377106 36.87784511 -8.53222656 40.36303711 C-8.58275215 43.92957342 -8.63827493 47.4960317 -8.69335938 51.0625 C-8.80042456 58.04159884 -8.90198085 65.0207684 -9 72 C-9.66 72 -10.32 72 -11 72 C-11 79.26 -11 86.52 -11 94 C-7.65875 93.938125 -7.65875 93.938125 -4.25 93.875 C2.6661959 93.81263026 9.21785055 94.58547349 16 96 C16 96.66 16 97.32 16 98 C17.0725 97.95875 18.145 97.9175 19.25 97.875 C24.93103623 97.85456462 30.43295193 98.96081769 36 100 C36 100.66 36 101.32 36 102 C36.60328125 102.06058594 37.2065625 102.12117188 37.828125 102.18359375 C39.02695312 102.30927734 39.02695312 102.30927734 40.25 102.4375 C41.43335938 102.55931641 41.43335938 102.55931641 42.640625 102.68359375 C44.82364639 102.97634993 46.8773182 103.42064419 49 104 C49 104.66 49 105.32 49 106 C50.60875 106.2165625 50.60875 106.2165625 52.25 106.4375 C54.91662949 106.83749442 57.41399729 107.27591924 60 108 C60 108.66 60 109.32 60 110 C60.763125 110.144375 61.52625 110.28875 62.3125 110.4375 C65 111 65 111 68 112 C68 112.66 68 113.32 68 114 C68.598125 114.144375 69.19625 114.28875 69.8125 114.4375 C71.56150404 114.8872439 73.28677023 115.42892341 75 116 C76.37195574 117.29355827 77.71182656 118.62298702 79 120 C79 120.66 79 121.32 79 122 C80.32 122.33 81.64 122.66 83 123 C83.99 121.02 83.99 121.02 85 119 C85.66 119 86.32 119 87 119 C87 122.63 87 126.26 87 130 C86.01 130 85.02 130 84 130 C84 129.34 84 128.68 84 128 C81.69 127.67 79.38 127.34 77 127 C76.01 123.535 76.01 123.535 75 120 C72.69 119.34 70.38 118.68 68 118 C68 117.34 68 116.68 68 116 C67.236875 115.855625 66.47375 115.71125 65.6875 115.5625 C63 115 63 115 60 114 C60 113.34 60 112.68 60 112 C59.236875 111.855625 58.47375 111.71125 57.6875 111.5625 C55 111 55 111 52 110 C52 109.34 52 108.68 52 108 C50.7625 107.855625 49.525 107.71125 48.25 107.5625 C45.43495501 107.21311498 42.7298503 106.79620634 40 106 C40 105.34 40 104.68 40 104 C39.25234375 103.93941406 38.5046875 103.87882812 37.734375 103.81640625 C36.25710938 103.69072266 36.25710938 103.69072266 34.75 103.5625 C33.28820312 103.44068359 33.28820312 103.44068359 31.796875 103.31640625 C29.43538247 103.04925416 27.28098935 102.64628032 25 102 C25 101.34 25 100.68 25 100 C24.38898438 100.02320313 23.77796875 100.04640625 23.1484375 100.0703125 C15.87806919 100.21367188 8.7729585 99.68329399 1.5390625 98.9921875 C0.52303955 98.89736084 -0.4929834 98.80253418 -1.53979492 98.70483398 C-4.02677347 98.47236509 -6.51348431 98.23735992 -9 98 C-8.97494385 98.91216278 -8.9498877 99.82432556 -8.92407227 100.76412964 C-8.68616731 109.44098443 -8.450653 118.11790032 -8.21769714 126.79488945 C-8.09790651 131.25375782 -7.97725276 135.71259905 -7.85449219 140.17138672 C-7.7356343 144.48966074 -7.61921884 148.80799483 -7.50436401 153.12637711 C-7.46055718 154.75826407 -7.41593018 156.39012928 -7.37039185 158.02196884 C-7.05499293 169.35091032 -6.94703646 180.66674869 -7 192 C-5.92149277 191.88578201 -5.92149277 191.88578201 -4.82119751 191.76925659 C2.20196694 191.04113995 9.13153223 190.87866255 16.1875 190.9375 C17.75854492 190.94426758 17.75854492 190.94426758 19.36132812 190.95117188 C21.90761536 190.96279876 24.4537746 190.97913719 27 191 C27 191.99 27 192.98 27 194 C29.64 194 32.28 194 35 194 C35 194.33 35 194.66 35 195 C20.81 195 6.62 195 -8 195 C-8.33 194.67 -8.66 194.34 -9 194 C-9 187.4 -9 180.8 -9 174 C-9.66 174 -10.32 174 -11 174 C-12.0910892 148.66409615 -12.11057324 123.35529346 -12 98 C-17.97340341 98.11982253 -23.94669183 98.24413969 -29.91992188 98.37231445 C-31.94463676 98.41516471 -33.96937635 98.4568654 -35.99414062 98.49731445 C-48.02087701 98.73844456 -60.00170354 99.11297064 -72 100 C-72 100.66 -72 101.32 -72 102 C-77.45461169 103.38529821 -82.36718401 104.2396943 -88 104 C-88 104.66 -88 105.32 -88 106 C-93.445 106.99 -93.445 106.99 -99 108 C-99 108.66 -99 109.32 -99 110 C-103.455 110.99 -103.455 110.99 -108 112 C-108 112.66 -108 113.32 -108 114 C-111.465 114.99 -111.465 114.99 -115 116 C-115 116.66 -115 117.32 -115 118 C-117.475 118.99 -117.475 118.99 -120 120 C-120.33 120.66 -120.66 121.32 -121 122 C-123.97 122.99 -123.97 122.99 -127 124 C-127 124.66 -127 125.32 -127 126 C-127.86625 126.37125 -127.86625 126.37125 -128.75 126.75 C-131.3002997 128.16683317 -133.01785701 129.87627537 -135 132 C-135.66 132 -136.32 132 -137 132 C-137 132.66 -137 133.32 -137 134 C-137.99 134.33 -138.98 134.66 -140 135 C-139.505 133.02 -139.505 133.02 -139 131 C-137.47005208 129.76302083 -135.94010417 128.52604167 -134.41015625 127.2890625 C-132.86733563 126.0333609 -132.86733563 126.0333609 -132 124 C-130.02 123.01 -130.02 123.01 -128 122 C-127.505 121.01 -127.505 121.01 -127 120 C-125.1875 119 -125.1875 119 -123 118 C-122.01 118 -121.02 118 -120 118 C-119.505 116.515 -119.505 116.515 -119 115 C-116.03 114.505 -116.03 114.505 -113 114 C-113 113.34 -113 112.68 -113 112 C-111.3523962 111.28752268 -109.68236471 110.62599617 -108 110 C-107.01 110 -106.02 110 -105 110 C-105 109.34 -105 108.68 -105 108 C-101.38026598 106.68373308 -98.90432869 106 -95 106 C-95 105.34 -95 104.68 -95 104 C-90.8803623 102.70756464 -87.33168317 101.73747375 -83 102 C-83 101.34 -83 100.68 -83 100 C-76.6221448 98.82706111 -70.49678438 97.70469162 -64 98 C-64 97.34 -64 96.68 -64 96 C-51.90050893 94.23319035 -39.98004888 93.86736333 -27.77734375 93.9375 C-26.24019516 93.94252889 -24.70304495 93.94708933 -23.16589355 93.95117188 C-19.44389499 93.96205851 -15.72195818 93.97924518 -12 94 C-12.00222061 92.97571396 -12.00444122 91.95142792 -12.00672913 90.89610291 C-12.02702583 81.22977821 -12.04200359 71.56345785 -12.05181217 61.89711666 C-12.05702441 56.9279027 -12.0640919 51.95870599 -12.07543945 46.98950195 C-12.08632732 42.19141534 -12.09228934 37.39334529 -12.09487724 32.59524727 C-12.09672086 30.76728619 -12.10032097 28.939326 -12.10573006 27.11137199 C-12.1130188 24.54550106 -12.11398764 21.97969803 -12.11352539 19.41381836 C-12.11712067 18.66287399 -12.12071594 17.91192963 -12.12442017 17.13822937 C-12.11569561 12.64479626 -11.73228469 8.41853098 -11 4 C-10.01 3.34 -9.02 2.68 -8 2 C-5.36 2 -2.72 2 0 2 C0 1.34 0 0.68 0 0 Z " transform="translate(260,33)" style="fill: #1B1B1B;"/><path d="M0 0 C1.32 0 2.64 0 4 0 C4 62.37 4 124.74 4 189 C-42.2 189 -88.4 189 -136 189 C-136 188.67 -136 188.34 -136 188 C-109.6 188 -83.2 188 -56 188 C-56 187.34 -56 186.68 -56 186 C-49.4 186 -42.8 186 -36 186 C-36 186.66 -36 187.32 -36 188 C-24.12 188 -12.24 188 0 188 C0.07371281 179.44931402 0.08971086 170.9229499 -0.22265625 162.37695312 C-1.31927039 132.13348958 -1.11749569 101.87484995 -1.07202667 71.61659122 C-1.06063604 63.89651135 -1.05529756 56.17643037 -1.05032361 48.45634413 C-1.04000345 32.63755301 -1.02253354 16.81877875 -1 1 C-0.67 0.67 -0.34 0.34 0 0 Z " transform="translate(440,39)" style="fill: #FBFBFB;"/><path d="M0 0 C2.7955623 0.03128372 5.59113723 0.0610878 8.38671875 0.09059906 C12.80157607 0.13769788 17.21634023 0.19010182 21.63108635 0.24664879 C23.27985642 0.26706721 24.92864763 0.28584814 26.57745552 0.30294228 C28.84648202 0.32686804 31.11534718 0.35687148 33.38427734 0.38851166 C35.30531029 0.41182808 35.30531029 0.41182808 37.26515198 0.43561554 C38.24604294 0.48782761 39.2269339 0.54003967 40.23754883 0.59383392 C41.22754883 1.08883392 41.22754883 1.08883392 42.23754883 1.59383392 C42.23754883 2.58383392 42.23754883 3.57383392 42.23754883 4.59383392 C-20.79245117 4.59383392 -83.82245117 4.59383392 -148.76245117 4.59383392 C-148.76245117 3.27383392 -148.76245117 1.95383392 -148.76245117 0.59383392 C-99.15832129 -0.44044284 -49.61081332 -0.56315809 0 0 Z " transform="translate(148.762451171875,223.40616607666016)" style="fill: #F8F8F8;"/><path d="M0 0 C0.66 0 1.32 0 2 0 C2.263653 9.59821963 2.52460988 19.19650795 2.78230286 28.79488945 C2.90209349 33.25375782 3.02274724 37.71259905 3.14550781 42.17138672 C3.2643657 46.48966074 3.38078116 50.80799483 3.49563599 55.12637711 C3.53944282 56.75826407 3.58406982 58.39012928 3.62960815 60.02196884 C3.94500707 71.35091032 4.05296354 82.66674869 4 94 C5.07850723 93.88578201 5.07850723 93.88578201 6.17880249 93.76925659 C13.20196694 93.04113995 20.13153223 92.87866255 27.1875 92.9375 C28.75854492 92.94426758 28.75854492 92.94426758 30.36132812 92.95117188 C32.90761536 92.96279876 35.4537746 92.97913719 38 93 C38 93.99 38 94.98 38 96 C40.64 96 43.28 96 46 96 C46 96.33 46 96.66 46 97 C31.81 97 17.62 97 3 97 C2.67 96.67 2.34 96.34 2 96 C2 89.4 2 82.8 2 76 C1.34 76 0.68 76 0 76 C-0.93971282 50.60526081 -1.40884338 25.39290323 0 0 Z " transform="translate(249,131)" style="fill: #1D1D1D;"/><path d="M0 0 C0 0.33 0 0.66 0 1 C10.89 1.495 10.89 1.495 22 2 C22 2.66 22 3.32 22 4 C20.78119141 4.02505615 19.56238281 4.0501123 18.30664062 4.07592773 C13.7067938 4.17138102 9.10705072 4.27124221 4.50732422 4.37231445 C2.53111223 4.41515003 0.55487526 4.45685112 -1.42138672 4.49731445 C-13.3054749 4.74150805 -25.14361562 5.12914985 -37 6 C-37 6.66 -37 7.32 -37 8 C-42.45461169 9.38529821 -47.36718401 10.2396943 -53 10 C-53 10.66 -53 11.32 -53 12 C-58.445 12.99 -58.445 12.99 -64 14 C-64 14.66 -64 15.32 -64 16 C-66.97 16.66 -69.94 17.32 -73 18 C-73 18.66 -73 19.32 -73 20 C-75.31 20.66 -77.62 21.32 -80 22 C-80 22.66 -80 23.32 -80 24 C-81.65 24.66 -83.3 25.32 -85 26 C-85.33 26.66 -85.66 27.32 -86 28 C-87.98 28.66 -89.96 29.32 -92 30 C-92 30.66 -92 31.32 -92 32 C-92.5775 32.2475 -93.155 32.495 -93.75 32.75 C-96.3002997 34.16683317 -98.01785701 35.87627537 -100 38 C-100.66 38 -101.32 38 -102 38 C-102 38.66 -102 39.32 -102 40 C-103.485 40.495 -103.485 40.495 -105 41 C-104.67 39.68 -104.34 38.36 -104 37 C-102.47005208 35.76302083 -100.94010417 34.52604167 -99.41015625 33.2890625 C-97.86733563 32.0333609 -97.86733563 32.0333609 -97 30 C-95.68 29.34 -94.36 28.68 -93 28 C-92.67 27.34 -92.34 26.68 -92 26 C-90.1875 25 -90.1875 25 -88 24 C-87.01 24 -86.02 24 -85 24 C-84.67 23.01 -84.34 22.02 -84 21 C-82.02 20.67 -80.04 20.34 -78 20 C-78 19.34 -78 18.68 -78 18 C-76.3523962 17.28752268 -74.68236471 16.62599617 -73 16 C-72.01 16 -71.02 16 -70 16 C-70 15.34 -70 14.68 -70 14 C-66.38026598 12.68373308 -63.90432869 12 -60 12 C-60 11.34 -60 10.68 -60 10 C-55.8803623 8.70756464 -52.33168317 7.73747375 -48 8 C-48 7.34 -48 6.68 -48 6 C-41.6221448 4.82706111 -35.49678438 3.70469162 -29 4 C-29 3.34 -29 2.68 -29 2 C-9.03189066 -0.29612756 -9.03189066 -0.29612756 0 0 Z " transform="translate(225,127)" style="fill: #555555;"/><path d="M0 0 C33.33 0 66.66 0 101 0 C101 32.20817701 101 32.20817701 100.78125 46.046875 C100.75865005 47.57627096 100.73623469 49.10566965 100.71398926 50.6350708 C100.65661406 54.54739211 100.59683454 58.45967257 100.53643799 62.37194824 C100.47457363 66.40940091 100.41514328 70.44688947 100.35546875 74.484375 C100.23927453 82.32295234 100.12052393 90.16148791 100 98 C99.67 98 99.34 98 99 98 C99 66.65 99 35.3 99 3 C66.33 2.67 33.66 2.34 0 2 C0 1.34 0 0.68 0 0 Z " transform="translate(92,33)" style="fill: #000000;"/><path d="M0 0 C0 0.66 0 1.32 0 2 C0.90492188 2.09087891 0.90492188 2.09087891 1.828125 2.18359375 C2.62734375 2.26738281 3.4265625 2.35117188 4.25 2.4375 C5.43335938 2.55931641 5.43335938 2.55931641 6.640625 2.68359375 C8.82364639 2.97634993 10.8773182 3.42064419 13 4 C13 4.66 13 5.32 13 6 C14.0725 6.144375 15.145 6.28875 16.25 6.4375 C18.91662949 6.83749442 21.41399729 7.27591924 24 8 C24 8.66 24 9.32 24 10 C24.763125 10.144375 25.52625 10.28875 26.3125 10.4375 C29 11 29 11 32 12 C32 12.66 32 13.32 32 14 C32.598125 14.144375 33.19625 14.28875 33.8125 14.4375 C35.56150404 14.8872439 37.28677023 15.42892341 39 16 C40.37195574 17.29355827 41.71182656 18.62298702 43 20 C43 20.66 43 21.32 43 22 C44.98 22.495 44.98 22.495 47 23 C47.66 21.68 48.32 20.36 49 19 C49.66 19 50.32 19 51 19 C51 22.63 51 26.26 51 30 C50.01 30 49.02 30 48 30 C48 29.34 48 28.68 48 28 C45.69 27.67 43.38 27.34 41 27 C40.34 24.69 39.68 22.38 39 20 C36.69 19.34 34.38 18.68 32 18 C32 17.34 32 16.68 32 16 C31.236875 15.855625 30.47375 15.71125 29.6875 15.5625 C27 15 27 15 24 14 C24 13.34 24 12.68 24 12 C23.236875 11.855625 22.47375 11.71125 21.6875 11.5625 C19 11 19 11 16 10 C16 9.34 16 8.68 16 8 C14.7625 7.855625 13.525 7.71125 12.25 7.5625 C9.43495501 7.21311498 6.7298503 6.79620634 4 6 C4 5.34 4 4.68 4 4 C3.25234375 3.93941406 2.5046875 3.87882813 1.734375 3.81640625 C0.74953125 3.73261719 -0.2353125 3.64882812 -1.25 3.5625 C-2.22453125 3.48128906 -3.1990625 3.40007812 -4.203125 3.31640625 C-6.56461753 3.04925416 -8.71901065 2.64628032 -11 2 C-11 1.34 -11 0.68 -11 0 C-14.96 0 -18.92 0 -23 0 C-23 -0.33 -23 -0.66 -23 -1 C-15.51421485 -2.87144629 -7.44903797 -1.61281923 0 0 Z " transform="translate(296,133)" style="fill: #121513;"/><path d="M0 0 C0.33 0 0.66 0 1 0 C1 31.68 1 63.36 1 96 C1.99 96 2.98 96 4 96 C4 96.66 4 97.32 4 98 C11.26 98 18.52 98 26 98 C26 98.33 26 98.66 26 99 C16.1 99 6.2 99 -4 99 C-3.67 98.01 -3.34 97.02 -3 96 C-2.34 96 -1.68 96 -1 96 C-1 64.65 -1 33.3 -1 1 C-0.67 0.67 -0.34 0.34 0 0 Z " transform="translate(4,125)" style="fill: #050505;"/><path d="M0 0 C0 0.66 0 1.32 0 2 C0.99 2.33 1.98 2.66 3 3 C-7.06968967 3.1006969 -16.96800905 3.02892215 -27 2 C-27 9.26 -27 16.52 -27 24 C-27.33 24 -27.66 24 -28 24 C-28.495 12.12 -28.495 12.12 -29 0 C-36.59 0 -44.18 0 -52 0 C-51.67 -0.66 -51.34 -1.32 -51 -2 C-33.96829011 -3.20481549 -16.80360819 -3.53779752 0 0 Z " transform="translate(276,129)" style="fill: #0A0A0A;"/><path d="M0 0 C6.6 0 13.2 0 20 0 C20 0.66 20 1.32 20 2 C31.55 2 43.1 2 55 2 C55 2.33 55 2.66 55 3 C10.45 3 -34.1 3 -80 3 C-80 2.67 -80 2.34 -80 2 C-53.6 2 -27.2 2 0 2 C0 1.34 0 0.68 0 0 Z " transform="translate(384,225)" style="fill: #E9E9E9;"/><path d="M0 0 C3.63 0 7.26 0 11 0 C11 0.66 11 1.32 11 2 C16.94 2 22.88 2 29 2 C29 1.34 29 0.68 29 0 C35.27 0 41.54 0 48 0 C48 0.66 48 1.32 48 2 C51.96 2 55.92 2 60 2 C60 2.66 60 3.32 60 4 C37.89 4 15.78 4 -7 4 C-7.33 4.66 -7.66 5.32 -8 6 C-8.33 5.01 -8.66 4.02 -9 3 C-8.67 2.67 -8.34 2.34 -8 2 C-5.36 2 -2.72 2 0 2 C0 1.34 0 0.68 0 0 Z " transform="translate(260,33)" style="fill: #323232;"/><path d="M0 0 C0.66 0 1.32 0 2 0 C2 22.77 2 45.54 2 69 C1.34 69 0.68 69 0 69 C-0.495 69.99 -0.495 69.99 -1 71 C-1.0719088 55.0342485 -0.85401482 39.08655406 -0.5 23.125 C-0.45160899 20.8645879 -0.40343092 18.60417124 -0.35546875 16.34375 C-0.23942103 10.89577849 -0.12079401 5.44786824 0 0 Z " transform="translate(1,152)" style="fill: #EEEEEE;"/><path d="M0 0 C1.98 0 3.96 0 6 0 C6 0.66 6 1.32 6 2 C2.7 2.66 -0.6 3.32 -4 4 C-4 4.66 -4 5.32 -4 6 C-6.97 6.66 -9.94 7.32 -13 8 C-13 8.66 -13 9.32 -13 10 C-15.31 10.66 -17.62 11.32 -20 12 C-20 12.66 -20 13.32 -20 14 C-21.65 14.66 -23.3 15.32 -25 16 C-25.33 16.66 -25.66 17.32 -26 18 C-27.98 18.66 -29.96 19.32 -32 20 C-32 20.66 -32 21.32 -32 22 C-32.5775 22.2475 -33.155 22.495 -33.75 22.75 C-36.3002997 24.16683317 -38.01785701 25.87627537 -40 28 C-40.66 28 -41.32 28 -42 28 C-42 28.66 -42 29.32 -42 30 C-42.99 30.33 -43.98 30.66 -45 31 C-44.67 29.68 -44.34 28.36 -44 27 C-42.47005208 25.76302083 -40.94010417 24.52604167 -39.41015625 23.2890625 C-37.86733563 22.0333609 -37.86733563 22.0333609 -37 20 C-35.68 19.34 -34.36 18.68 -33 18 C-32.67 17.34 -32.34 16.68 -32 16 C-30.1875 15 -30.1875 15 -28 14 C-27.01 14 -26.02 14 -25 14 C-24.67 13.01 -24.34 12.02 -24 11 C-22.02 10.67 -20.04 10.34 -18 10 C-18 9.34 -18 8.68 -18 8 C-16.3523962 7.28752268 -14.68236471 6.62599617 -13 6 C-12.01 6 -11.02 6 -10 6 C-10 5.34 -10 4.68 -10 4 C-6.38026598 2.68373308 -3.90432869 2 0 2 C0 1.34 0 0.68 0 0 Z " transform="translate(165,137)" style="fill: #242424;"/><path d="M0 0 C0.66 0 1.32 0 2 0 C2 1.98 2 3.96 2 6 C2.97900269 5.8928064 2.97900269 5.8928064 3.9777832 5.78344727 C11.0707945 5.06517558 18.06210625 4.87808363 25.1875 4.9375 C26.75854492 4.94426758 26.75854492 4.94426758 28.36132812 4.95117188 C30.90761536 4.96279876 33.4537746 4.97913719 36 5 C36 5.99 36 6.98 36 8 C38.64 8 41.28 8 44 8 C44 8.33 44 8.66 44 9 C29.81 9 15.62 9 1 9 C0.67 8.67 0.34 8.34 0 8 C0 5.36 0 2.72 0 0 Z " transform="translate(251,219)" style="fill: #404040;"/><path d="M0 0 C3.96 0 7.92 0 12 0 C12.07563732 20.79606118 11.857434 41.57895982 11.53643799 62.37194824 C11.47457363 66.40940091 11.41514328 70.44688947 11.35546875 74.484375 C11.23927453 82.32295234 11.12052393 90.16148791 11 98 C10.67 98 10.34 98 10 98 C10 66.65 10 35.3 10 3 C6.7 2.67 3.4 2.34 0 2 C0 1.34 0 0.68 0 0 Z " transform="translate(181,33)" style="fill: #070707;"/><path d="M0 0 C13.2 0 26.4 0 40 0 C40 0.66 40 1.32 40 2 C45.28 2 50.56 2 56 2 C56 2.33 56 2.66 56 3 C37.19 3 18.38 3 -1 3 C-0.67 2.01 -0.34 1.02 0 0 Z " transform="translate(132,221)" style="fill: #080808;"/><path d="M0 0 C1.32 0 2.64 0 4 0 C4 0.66 4 1.32 4 2 C5.32 2.33 6.64 2.66 8 3 C8 2.01 8 1.02 8 0 C8.99 0 9.98 0 11 0 C10.67 1.98 10.34 3.96 10 6 C9.34 6 8.68 6 8 6 C8 7.32 8 8.64 8 10 C8.66 10 9.32 10 10 10 C10.66 11.65 11.32 13.3 12 15 C13.98 15 15.96 15 18 15 C17.01 15.495 17.01 15.495 16 16 C15.67 17.32 15.34 18.64 15 20 C13.68 19.67 12.36 19.34 11 19 C10.67 18.01 10.34 17.02 10 16 C9.34 15.67 8.68 15.34 8 15 C8 14.01 8 13.02 8 12 C7.34 12 6.68 12 6 12 C6 12.99 6 13.98 6 15 C5.34 15 4.68 15 4 15 C3.7834375 15.8971875 3.7834375 15.8971875 3.5625 16.8125 C3.1127561 18.56150404 2.57107659 20.28677023 2 22 C0.68 22.33 -0.64 22.66 -2 23 C-1.01 19.535 -1.01 19.535 0 16 C0.66 15.67 1.32 15.34 2 15 C2.66 13.35 3.32 11.7 4 10 C4.66 10 5.32 10 6 10 C6 8.68 6 7.36 6 6 C5.34 6 4.68 6 4 6 C3.34 5.34 2.68 4.68 2 4 C1.34 4 0.68 4 0 4 C0 4.99 0 5.98 0 7 C-0.66 7 -1.32 7 -2 7 C-1.42415568 4.61435923 -0.77772405 2.33317216 0 0 Z " transform="translate(89,1)" style="fill: #131313;"/><path d="M0 0 C12.54 0 25.08 0 38 0 C38 0.99 38 1.98 38 3 C33.87431757 3.16909163 29.74839266 3.32947509 25.62207031 3.48217773 C24.22158959 3.53518719 22.82119312 3.59047807 21.42089844 3.64819336 C7.101645 4.23546659 7.101645 4.23546659 0 3 C0 2.01 0 1.02 0 0 Z " transform="translate(287,224)" style="fill: #0F0F0F;"/><path d="M0 0 C1.65 0 3.3 0 5 0 C5 0.99 5 1.98 5 3 C5.66 3 6.32 3 7 3 C7.66 5.31 8.32 7.62 9 10 C9.99 10 10.98 10 12 10 C12.33 7.69 12.66 5.38 13 3 C13.66 3 14.32 3 15 3 C15 2.01 15 1.02 15 0 C15.66 0 16.32 0 17 0 C16.34 3.63 15.68 7.26 15 11 C14.34 11 13.68 11 13 11 C12.855625 11.763125 12.71125 12.52625 12.5625 13.3125 C12 16 12 16 11 19 C10.34 19 9.68 19 9 19 C8.67 19.99 8.34 20.98 8 22 C7.95653201 20.00047242 7.960008 17.99960012 8 16 C8.33 15.34 8.66 14.68 9 14 C9.66 14 10.32 14 11 14 C11 13.34 11 12.68 11 12 C10.01 12 9.02 12 8 12 C7.67 10.68 7.34 9.36 7 8 C6.34 8 5.68 8 5 8 C4.67 6.68 4.34 5.36 4 4 C3.01 4 2.02 4 1 4 C0.67 4.66 0.34 5.32 0 6 C0 4.02 0 2.04 0 0 Z " transform="translate(340,1)" style="fill: #161616;"/><path d="M0 0 C0.66 0 1.32 0 2 0 C2 2.64 2 5.28 2 8 C5.3 8 8.6 8 12 8 C12 9.32 12 10.64 12 12 C8.7 12 5.4 12 2 12 C1.67 13.98 1.34 15.96 1 18 C0.01 18 -0.98 18 -2 18 C-2 17.01 -2 16.02 -2 15 C-1.34 15 -0.68 15 0 15 C0 14.01 0 13.02 0 12 C-2.31 12 -4.62 12 -7 12 C-7 11.34 -7 10.68 -7 10 C-4.69 10 -2.38 10 0 10 C0 6.7 0 3.4 0 0 Z " transform="translate(315,149)" style="fill: #3AAC69;"/><path d="M0 0 C1.32 0 2.64 0 4 0 C4 2.31 4 4.62 4 7 C5.65 7 7.3 7 9 7 C9 7.66 9 8.32 9 9 C7.35 9 5.7 9 4 9 C4 10.98 4 12.96 4 15 C3.01 15 2.02 15 1 15 C0.67 13.02 0.34 11.04 0 9 C-1.98 9 -3.96 9 -6 9 C-6 7.68 -6 6.36 -6 5 C-4.02 5 -2.04 5 0 5 C0 3.35 0 1.7 0 0 Z " transform="translate(355,168)" style="fill: #49B275;"/><path d="M0 0 C0.99 0 1.98 0 3 0 C3 13.2 3 26.4 3 40 C2.34 40 1.68 40 1 40 C0.67 26.8 0.34 13.6 0 0 Z " transform="translate(188,133)" style="fill: #B5B5B5;"/><path d="M0 0 C0.66 0 1.32 0 2 0 C2 1.32 2 2.64 2 4 C3.98 4 5.96 4 8 4 C8 4.99 8 5.98 8 7 C6.02 7 4.04 7 2 7 C2 9.97 2 12.94 2 16 C0.68 15.67 -0.64 15.34 -2 15 C-2 12.69 -2 10.38 -2 8 C-3.32 8 -4.64 8 -6 8 C-6 7.01 -6 6.02 -6 5 C-4.02 5 -2.04 5 0 5 C0 3.35 0 1.7 0 0 Z " transform="translate(335,80)" style="fill: #2DA760;"/><path d="M0 0 C5.28 0 10.56 0 16 0 C15.01 0.495 15.01 0.495 14 1 C14 1.99 14 2.98 14 4 C13.34 4 12.68 4 12 4 C11.67 6.31 11.34 8.62 11 11 C10.01 11 9.02 11 8 11 C7 9.1875 7 9.1875 6 7 C6 6.01 6 5.02 6 4 C5.34 4 4.68 4 4 4 C4 3.01 4 2.02 4 1 C2.68 0.67 1.36 0.34 0 0 Z " transform="translate(341,0)" style="fill: #EFEFEF;"/><path d="M0 0 C10.23 0 20.46 0 31 0 C30.01 0.33 29.02 0.66 28 1 C28 1.66 28 2.32 28 3 C24.37 3 20.74 3 17 3 C17 2.34 17 1.68 17 1 C15.35 1 13.7 1 12 1 C12 1.66 12 2.32 12 3 C9.69 3 7.38 3 5 3 C5 2.34 5 1.68 5 1 C3.35 1 1.7 1 0 1 C0 0.67 0 0.34 0 0 Z " transform="translate(64,32)" style="fill: #2B2B2B;"/><path d="M0 0 C0.33 1.32 0.66 2.64 1 4 C-6.92 4 -14.84 4 -23 4 C-23 3.34 -23 2.68 -23 2 C-15.41 1.34 -7.82 0.68 0 0 Z " transform="translate(439,223)" style="fill: #0B0B0B;"/><path d="M0 0 C0 0.66 0 1.32 0 2 C1.32 2.33 2.64 2.66 4 3 C2.359375 3.55859375 2.359375 3.55859375 0 4 C-2.796875 3.66015625 -2.796875 3.66015625 -5.75 3.0625 C-6.73484375 2.86785156 -7.7196875 2.67320312 -8.734375 2.47265625 C-9.48203125 2.31667969 -10.2296875 2.16070312 -11 2 C-11 1.34 -11 0.68 -11 0 C-14.96 0 -18.92 0 -23 0 C-23 -0.33 -23 -0.66 -23 -1 C-15.51421485 -2.87144629 -7.44903797 -1.61281923 0 0 Z " transform="translate(296,133)" style="fill: #1A1B1A;"/><path d="M0 0 C0.66 0 1.32 0 2 0 C2.69289369 3.72430357 3.11144596 7.21083746 3 11 C2.67 10.01 2.34 9.02 2 8 C-1.71279469 6.76240177 -5.31306346 6.64391103 -9.1875 6.4375 C-9.93708984 6.39431641 -10.68667969 6.35113281 -11.45898438 6.30664062 C-13.30578375 6.20077315 -15.15286834 6.0999024 -17 6 C-17 5.34 -17 4.68 -17 4 C-11.39 4 -5.78 4 0 4 C0 2.68 0 1.36 0 0 Z " transform="translate(189,217)" style="fill: #212121;"/><path d="M0 0 C1.98 0.495 1.98 0.495 4 1 C3.34 1 2.68 1 2 1 C2 3.64 2 6.28 2 9 C3.98 8.34 5.96 7.68 8 7 C7.34 8.65 6.68 10.3 6 12 C4.02 12 2.04 12 0 12 C-0.33 11.67 -0.66 11.34 -1 11 C-1 7.7 -1 4.4 -1 1 C-0.67 0.67 -0.34 0.34 0 0 Z " transform="translate(313,64)" style="fill: #252C28;"/><path d="M0 0 C1.32 0 2.64 0 4 0 C4 0.66 4 1.32 4 2 C5.32 2.33 6.64 2.66 8 3 C8 2.01 8 1.02 8 0 C8.99 0 9.98 0 11 0 C10.67 1.98 10.34 3.96 10 6 C9.34 6 8.68 6 8 6 C7.67 6.99 7.34 7.98 7 9 C5.35 7.35 3.7 5.7 2 4 C1.34 4 0.68 4 0 4 C0 4.99 0 5.98 0 7 C-0.66 7 -1.32 7 -2 7 C-1.42415568 4.61435923 -0.77772405 2.33317216 0 0 Z " transform="translate(89,1)" style="fill: #1A1A1A;"/><path d="M0 0 C-0.33 0.66 -0.66 1.32 -1 2 C-2.32 2 -3.64 2 -5 2 C-5 2.66 -5 3.32 -5 4 C-7.97 4 -10.94 4 -14 4 C-14 3.34 -14 2.68 -14 2 C-16.64 2 -19.28 2 -22 2 C-22 1.67 -22 1.34 -22 1 C-14.64424835 0.29223008 -7.3905476 -0.14715692 0 0 Z " transform="translate(225,127)" style="fill: #363636;"/><path d="M0 0 C5.94 0 11.88 0 18 0 C18 0.66 18 1.32 18 2 C13.36960238 3.19494132 8.75200299 3.28903059 4 3 C2.65857612 2.70088318 1.32148827 2.37756808 0 2 C0 1.34 0 0.68 0 0 Z " transform="translate(51,33)" style="fill: #161616;"/><path d="M0 0 C0 0.99 0 1.98 0 3 C-0.5775 3.2475 -1.155 3.495 -1.75 3.75 C-4.3002997 5.16683317 -6.01785701 6.87627537 -8 9 C-8.66 9 -9.32 9 -10 9 C-10 9.66 -10 10.32 -10 11 C-10.99 11.33 -11.98 11.66 -13 12 C-12.67 10.68 -12.34 9.36 -12 8 C-10.47005208 6.76302083 -8.94010417 5.52604167 -7.41015625 4.2890625 C-5.86733563 3.0333609 -5.86733563 3.0333609 -5 1 C-2 0 -2 0 0 0 Z " transform="translate(133,156)" style="fill: #141414;"/><path d="M0 0 C3.96 0 7.92 0 12 0 C12 2.97 12 5.94 12 9 C11.01 9.495 11.01 9.495 10 10 C10 7.69 10 5.38 10 3 C6.7 2.67 3.4 2.34 0 2 C0 1.34 0 0.68 0 0 Z " transform="translate(181,33)" style="fill: #181818;"/><path d="M0 0 C1.32 0 2.64 0 4 0 C4 0.66 4 1.32 4 2 C11.26 2 18.52 2 26 2 C26 2.33 26 2.66 26 3 C16.1 3 6.2 3 -4 3 C-2.68 2.01 -1.36 1.02 0 0 Z " transform="translate(4,221)" style="fill: #010101;"/><path d="M0 0 C0 0.66 0 1.32 0 2 C-3.3 2 -6.6 2 -10 2 C-10 2.66 -10 3.32 -10 4 C-11.98 4 -13.96 4 -16 4 C-16 3.01 -16 2.02 -16 1 C-10.63904667 -0.12862175 -5.44693314 -0.09688221 0 0 Z " transform="translate(419,123)" style="fill: #EF4748;"/><path d="M0 0 C0 0.99 0 1.98 0 3 C-2.88211302 3.96070434 -4.69850044 4.10581883 -7.6875 4.0625 C-8.89986328 4.04896484 -8.89986328 4.04896484 -10.13671875 4.03515625 C-11.05904297 4.01775391 -11.05904297 4.01775391 -12 4 C-12 3.01 -12 2.02 -12 1 C-10.56274129 0.83126522 -9.12518162 0.66509263 -7.6875 0.5 C-6.88699219 0.4071875 -6.08648437 0.314375 -5.26171875 0.21875 C-3 0 -3 0 0 0 Z " transform="translate(284,88)" style="fill: #EF4749;"/><path d="M0 0 C2.64 0 5.28 0 8 0 C8 0.66 8 1.32 8 2 C6.35 2 4.7 2 3 2 C3 3.98 3 5.96 3 8 C2.01 8 1.02 8 0 8 C0 5.36 0 2.72 0 0 Z " transform="translate(356,175)" style="fill: #23A258;"/><path d="M0 0 C1.98 0 3.96 0 6 0 C6 0.66 6 1.32 6 2 C2.7 2.66 -0.6 3.32 -4 4 C-4 4.66 -4 5.32 -4 6 C-5.32 6 -6.64 6 -8 6 C-8 5.34 -8 4.68 -8 4 C-6.25 3 -6.25 3 -4 2 C-2.68 2 -1.36 2 0 2 C0 1.34 0 0.68 0 0 Z " transform="translate(165,137)" style="fill: #1D1D1D;"/><path d="M0 0 C1.32 0 2.64 0 4 0 C4 0.66 4 1.32 4 2 C4.66 2.33 5.32 2.66 6 3 C2.32589215 4.17571451 -1.16929183 4.07366746 -5 4 C-5.33 4.66 -5.66 5.32 -6 6 C-6 5.34 -6 4.68 -6 4 C-6.99 3.67 -7.98 3.34 -9 3 C-4.545 2.505 -4.545 2.505 0 2 C0 1.34 0 0.68 0 0 Z " transform="translate(177,133)" style="fill: #4A4A4A;"/><path d="M0 0 C0.66 0 1.32 0 2 0 C2 3.63 2 7.26 2 11 C1.01 11 0.02 11 -1 11 C-1 7.7 -1 4.4 -1 1 C-0.67 0.67 -0.34 0.34 0 0 Z " transform="translate(345,152)" style="fill: #4D5B52;"/><path d="M0 0 C1.65 0 3.3 0 5 0 C5 0.99 5 1.98 5 3 C5.66 3.33 6.32 3.66 7 4 C6.34 4 5.68 4 5 4 C4.67 4.66 4.34 5.32 4 6 C4 5.34 4 4.68 4 4 C3.01 4 2.02 4 1 4 C0.67 4.66 0.34 5.32 0 6 C0 4.02 0 2.04 0 0 Z " transform="translate(340,1)" style="fill: #181818;"/><path d="M0 0 C0.66 0 1.32 0 2 0 C1.34 3.3 0.68 6.6 0 10 C-0.66 10 -1.32 10 -2 10 C-2 7.69 -2 5.38 -2 3 C-1.34 3 -0.68 3 0 3 C0 2.01 0 1.02 0 0 Z " transform="translate(355,1)" style="fill: #0E0E0E;"/><path d="M0 0 C2.76276177 0.52268466 5.3260876 1.10869587 8 2 C7.34 2 6.68 2 6 2 C5.67 3.32 5.34 4.64 5 6 C3.68 5.67 2.36 5.34 1 5 C0.67 3.35 0.34 1.7 0 0 Z " transform="translate(99,15)" style="fill: #0D0D0D;"/><path d="M0 0 C8.57142857 -0.14285714 8.57142857 -0.14285714 12 1 C12 1.66 12 2.32 12 3 C9.69 3 7.38 3 5 3 C5 2.34 5 1.68 5 1 C3.35 1 1.7 1 0 1 C0 0.67 0 0.34 0 0 Z " transform="translate(64,32)" style="fill: #4E4E4E;"/><path d="M0 0 C0.99 0 1.98 0 3 0 C3 0.99 3 1.98 3 3 C1.68 3.33 0.36 3.66 -1 4 C-1 4.66 -1 5.32 -1 6 C-1.99 6.33 -2.98 6.66 -4 7 C-3.67 5.68 -3.34 4.36 -3 3 C-2.01 2.01 -1.02 1.02 0 0 Z " transform="translate(124,161)" style="fill: #121212;"/><path d="M0 0 C0.99 0 1.98 0 3 0 C3 0.66 3 1.32 3 2 C4.32 2.33 5.64 2.66 7 3 C5.4375 3.5625 5.4375 3.5625 3 4 C0.65885633 3.72686657 -1.67750658 3.40197001 -4 3 C-2.68 2.67 -1.36 2.34 0 2 C0 1.34 0 0.68 0 0 Z " transform="translate(293,133)" style="fill: #262D29;"/><path d="M0 0 C1.65 0.33 3.3 0.66 5 1 C5 1.66 5 2.32 5 3 C2.69 3 0.38 3 -2 3 C-2 2.34 -2 1.68 -2 1 C-1.34 0.67 -0.68 0.34 0 0 Z " transform="translate(183,132)" style="fill: #222222;"/><path d="M0 0 C2.31 0 4.62 0 7 0 C7 0.99 7 1.98 7 3 C5.35 3 3.7 3 2 3 C2 2.34 2 1.68 2 1 C1.34 0.67 0.68 0.34 0 0 Z " transform="translate(109,176)" style="fill: #282828;"/><path d="M0 0 C1.98 0.495 1.98 0.495 4 1 C3.34 1 2.68 1 2 1 C2 1.99 2 2.98 2 4 C1.34 4 0.68 4 0 4 C-0.33 5.32 -0.66 6.64 -1 8 C-1 5.69 -1 3.38 -1 1 C-0.67 0.67 -0.34 0.34 0 0 Z " transform="translate(313,64)" style="fill: #050505;"/><path d="M0 0 C1.32 0.33 2.64 0.66 4 1 C4 1.99 4 2.98 4 4 C2.68 4 1.36 4 0 4 C0 3.34 0 2.68 0 2 C-0.66 1.67 -1.32 1.34 -2 1 C-1.34 0.67 -0.68 0.34 0 0 Z " transform="translate(71,159)" style="fill: #2A2A2A;"/><path d="M0 0 C1.32 0 2.64 0 4 0 C4 1.32 4 2.64 4 4 C2.68 4 1.36 4 0 4 C0 2.68 0 1.36 0 0 Z " transform="translate(91,85)" style="fill: #1E1E1E;"/><path d="M0 0 C0.66 0 1.32 0 2 0 C2 1.32 2 2.64 2 4 C1.34 4 0.68 4 0 4 C-0.33 4.99 -0.66 5.98 -1 7 C-1 5.02 -1 3.04 -1 1 C-0.67 0.67 -0.34 0.34 0 0 Z " transform="translate(349,16)" style="fill: #1B1B1B;"/><path d="M0 0 C0.66 0 1.32 0 2 0 C2.66 1.98 3.32 3.96 4 6 C3.34 6 2.68 6 2 6 C2 5.34 2 4.68 2 4 C1.34 4 0.68 4 0 4 C0 2.68 0 1.36 0 0 Z " transform="translate(345,5)" style="fill: #0C0C0C;"/><path d="M0 0 C0.99 0 1.98 0 3 0 C2.67 1.32 2.34 2.64 2 4 C1.01 4 0.02 4 -1 4 C-0.67 2.68 -0.34 1.36 0 0 Z " transform="translate(37,89)" style="fill: #404040;"/><path d="M0 0 C1.32 0.33 2.64 0.66 4 1 C3.34 1 2.68 1 2 1 C2 1.66 2 2.32 2 3 C0.68 3 -0.64 3 -2 3 C-2 2.34 -2 1.68 -2 1 C-1.34 0.67 -0.68 0.34 0 0 Z " transform="translate(159,140)" style="fill: #131313;"/><path d="M0 0 C1.32 0 2.64 0 4 0 C4 0.99 4 1.98 4 3 C2.68 3 1.36 3 0 3 C0 2.01 0 1.02 0 0 Z " transform="translate(163,125)" style="fill: #0C0C0C;"/><path d="M0 0 C0.66 0 1.32 0 2 0 C2 1.32 2 2.64 2 4 C0.68 3.67 -0.64 3.34 -2 3 C-2 2.34 -2 1.68 -2 1 C-1.34 0.67 -0.68 0.34 0 0 Z " transform="translate(95,0)" style="fill: #D3D3D3;"/><path d="M0 0 C0.33 1.32 0.66 2.64 1 4 C0.34 4.66 -0.32 5.32 -1 6 C-1 5.34 -1 4.68 -1 4 C-1.66 3.67 -2.32 3.34 -3 3 C-2.01 2.01 -1.02 1.02 0 0 Z " transform="translate(128,157)" style="fill: #222222;"/><path d="M0 0 C0.66 0 1.32 0 2 0 C2.33 0.99 2.66 1.98 3 3 C1.68 3 0.36 3 -1 3 C-0.67 2.01 -0.34 1.02 0 0 Z " transform="translate(133,153)" style="fill: #2F2F2F;"/><path d="M0 0 C0.66 0 1.32 0 2 0 C2 0.99 2 1.98 2 3 C0.68 3 -0.64 3 -2 3 C-2 2.34 -2 1.68 -2 1 C-1.34 0.67 -0.68 0.34 0 0 Z " transform="translate(317,64)" style="fill: #768D7E;"/></svg>